<svg xmlns="http://www.w3.org/2000/svg" viewBox="0 0 400 400" width="400" height="400"><circle cx="92" cy="111.56" r="23.56" fill="#E8A83A" stroke="#1B1B1F" stroke-width="5"/><path d="M54.800000000000004 193.4 a37.199999999999996 44.64 0 0 1 74.39999999999999 0 Z" fill="#E8A83A" stroke="#1B1B1F" stroke-width="5"/><circle cx="200" cy="111.56" r="23.56" fill="#F3ECDD" stroke="#1B1B1F" stroke-width="5"/><path d="M162.8 193.4 a37.199999999999996 44.64 0 0 1 74.39999999999999 0 Z" fill="#F3ECDD" stroke="#1B1B1F" stroke-width="5"/><circle cx="308" cy="111.56" r="23.56" fill="#F3ECDD" stroke="#1B1B1F" stroke-width="5"/><path d="M270.8 193.4 a37.199999999999996 44.64 0 0 1 74.39999999999999 0 Z" fill="#F3ECDD" stroke="#1B1B1F" stroke-width="5"/><circle cx="92" cy="261.56" r="23.56" fill="#F3ECDD" stroke="#1B1B1F" stroke-width="5"/><path d="M54.800000000000004 343.4 a37.199999999999996 44.64 0 0 1 74.39999999999999 0 Z" fill="#F3ECDD" stroke="#1B1B1F" stroke-width="5"/><circle cx="200" cy="261.56" r="23.56" fill="#F3ECDD" stroke="#1B1B1F" stroke-width="5"/><path d="M162.8 343.4 a37.199999999999996 44.64 0 0 1 74.39999999999999 0 Z" fill="#F3ECDD" stroke="#1B1B1F" stroke-width="5"/><circle cx="308" cy="261.56" r="23.56" fill="#F3ECDD" stroke="#1B1B1F" stroke-width="5"/><path d="M270.8 343.4 a37.199999999999996 44.64 0 0 1 74.39999999999999 0 Z" fill="#F3ECDD" stroke="#1B1B1F" stroke-width="5"/></svg>